<mxfile host="app.diagrams.net" agent="Mozilla/5.0 (Windows NT 10.0; Win64; x64) AppleWebKit/537.36 (KHTML, like Gecko) Chrome/140.0.0.0 Safari/537.36" version="28.2.7">
  <diagram name="Page-1" id="XpdyZdqsvCU4nCHBUs9L">
    <mxGraphModel dx="1249" dy="1255" grid="1" gridSize="10" guides="1" tooltips="1" connect="1" arrows="1" fold="1" page="1" pageScale="1" pageWidth="1169" pageHeight="1654" math="0" shadow="0">
      <root>
        <mxCell id="0" />
        <mxCell id="1" parent="0" />
        <mxCell id="y2u8pbOZwzKgA-yWUY7D-1" value="GEB15I_vendeglatas" style="ellipse;whiteSpace=wrap;html=1;" parent="1" vertex="1">
          <mxGeometry x="2700" y="20" width="120" height="80" as="geometry" />
        </mxCell>
        <mxCell id="y2u8pbOZwzKgA-yWUY7D-2" value="" style="ellipse;whiteSpace=wrap;html=1;" parent="1" vertex="1">
          <mxGeometry x="1740" y="150" width="120" height="80" as="geometry" />
        </mxCell>
        <mxCell id="y2u8pbOZwzKgA-yWUY7D-3" value="etterem" style="ellipse;whiteSpace=wrap;html=1;" parent="1" vertex="1">
          <mxGeometry x="1750" y="160" width="100" height="60" as="geometry" />
        </mxCell>
        <mxCell id="y2u8pbOZwzKgA-yWUY7D-4" value="" style="ellipse;whiteSpace=wrap;html=1;" parent="1" vertex="1">
          <mxGeometry x="2130" y="160" width="120" height="80" as="geometry" />
        </mxCell>
        <mxCell id="y2u8pbOZwzKgA-yWUY7D-5" value="foszakacs" style="ellipse;whiteSpace=wrap;html=1;" parent="1" vertex="1">
          <mxGeometry x="2140" y="170" width="100" height="60" as="geometry" />
        </mxCell>
        <mxCell id="y2u8pbOZwzKgA-yWUY7D-6" value="" style="ellipse;whiteSpace=wrap;html=1;" parent="1" vertex="1">
          <mxGeometry x="2520" y="160" width="120" height="80" as="geometry" />
        </mxCell>
        <mxCell id="y2u8pbOZwzKgA-yWUY7D-7" value="szakacs" style="ellipse;whiteSpace=wrap;html=1;" parent="1" vertex="1">
          <mxGeometry x="2525" y="165" width="110" height="70" as="geometry" />
        </mxCell>
        <mxCell id="y2u8pbOZwzKgA-yWUY7D-9" value="" style="ellipse;whiteSpace=wrap;html=1;" parent="1" vertex="1">
          <mxGeometry x="2910" y="160" width="120" height="80" as="geometry" />
        </mxCell>
        <mxCell id="y2u8pbOZwzKgA-yWUY7D-10" value="gyakornok" style="ellipse;whiteSpace=wrap;html=1;" parent="1" vertex="1">
          <mxGeometry x="2915" y="165" width="110" height="70" as="geometry" />
        </mxCell>
        <mxCell id="y2u8pbOZwzKgA-yWUY7D-12" value="" style="ellipse;whiteSpace=wrap;html=1;" parent="1" vertex="1">
          <mxGeometry x="3300" y="155" width="120" height="80" as="geometry" />
        </mxCell>
        <mxCell id="y2u8pbOZwzKgA-yWUY7D-13" value="vendeg" style="ellipse;whiteSpace=wrap;html=1;" parent="1" vertex="1">
          <mxGeometry x="3310" y="160" width="100" height="70" as="geometry" />
        </mxCell>
        <mxCell id="y2u8pbOZwzKgA-yWUY7D-15" value="" style="ellipse;whiteSpace=wrap;html=1;" parent="1" vertex="1">
          <mxGeometry x="3730" y="140" width="120" height="80" as="geometry" />
        </mxCell>
        <mxCell id="y2u8pbOZwzKgA-yWUY7D-16" value="rendeles" style="ellipse;whiteSpace=wrap;html=1;" parent="1" vertex="1">
          <mxGeometry x="3740" y="145" width="100" height="70" as="geometry" />
        </mxCell>
        <mxCell id="y2u8pbOZwzKgA-yWUY7D-19" value="" style="endArrow=none;html=1;rounded=0;exitX=0.5;exitY=0;exitDx=0;exitDy=0;entryX=0.5;entryY=1;entryDx=0;entryDy=0;" parent="1" source="y2u8pbOZwzKgA-yWUY7D-15" target="y2u8pbOZwzKgA-yWUY7D-1" edge="1">
          <mxGeometry width="50" height="50" relative="1" as="geometry">
            <mxPoint x="2360" y="290" as="sourcePoint" />
            <mxPoint x="2300" y="120" as="targetPoint" />
          </mxGeometry>
        </mxCell>
        <mxCell id="y2u8pbOZwzKgA-yWUY7D-20" value="" style="endArrow=none;html=1;rounded=0;entryX=0.554;entryY=-0.015;entryDx=0;entryDy=0;entryPerimeter=0;exitX=0.5;exitY=1;exitDx=0;exitDy=0;" parent="1" source="y2u8pbOZwzKgA-yWUY7D-1" target="y2u8pbOZwzKgA-yWUY7D-12" edge="1">
          <mxGeometry width="50" height="50" relative="1" as="geometry">
            <mxPoint x="2360" y="290" as="sourcePoint" />
            <mxPoint x="2410" y="240" as="targetPoint" />
          </mxGeometry>
        </mxCell>
        <mxCell id="y2u8pbOZwzKgA-yWUY7D-21" value="" style="endArrow=none;html=1;rounded=0;exitX=0.5;exitY=0;exitDx=0;exitDy=0;entryX=0.5;entryY=1;entryDx=0;entryDy=0;" parent="1" source="y2u8pbOZwzKgA-yWUY7D-9" target="y2u8pbOZwzKgA-yWUY7D-1" edge="1">
          <mxGeometry width="50" height="50" relative="1" as="geometry">
            <mxPoint x="2360" y="290" as="sourcePoint" />
            <mxPoint x="2320" y="140" as="targetPoint" />
          </mxGeometry>
        </mxCell>
        <mxCell id="y2u8pbOZwzKgA-yWUY7D-22" value="" style="endArrow=none;html=1;rounded=0;exitX=0.5;exitY=0;exitDx=0;exitDy=0;entryX=0.5;entryY=1;entryDx=0;entryDy=0;" parent="1" source="y2u8pbOZwzKgA-yWUY7D-6" target="y2u8pbOZwzKgA-yWUY7D-1" edge="1">
          <mxGeometry width="50" height="50" relative="1" as="geometry">
            <mxPoint x="2450" y="335" as="sourcePoint" />
            <mxPoint x="2390" y="155" as="targetPoint" />
          </mxGeometry>
        </mxCell>
        <mxCell id="y2u8pbOZwzKgA-yWUY7D-23" value="" style="endArrow=none;html=1;rounded=0;exitX=0.5;exitY=0;exitDx=0;exitDy=0;entryX=0.5;entryY=1;entryDx=0;entryDy=0;" parent="1" source="y2u8pbOZwzKgA-yWUY7D-4" target="y2u8pbOZwzKgA-yWUY7D-1" edge="1">
          <mxGeometry width="50" height="50" relative="1" as="geometry">
            <mxPoint x="2250" y="350" as="sourcePoint" />
            <mxPoint x="2300" y="300" as="targetPoint" />
          </mxGeometry>
        </mxCell>
        <mxCell id="y2u8pbOZwzKgA-yWUY7D-24" value="" style="endArrow=none;html=1;rounded=0;exitX=0.667;exitY=0;exitDx=0;exitDy=0;exitPerimeter=0;entryX=0.5;entryY=1;entryDx=0;entryDy=0;" parent="1" source="y2u8pbOZwzKgA-yWUY7D-2" target="y2u8pbOZwzKgA-yWUY7D-1" edge="1">
          <mxGeometry width="50" height="50" relative="1" as="geometry">
            <mxPoint x="2190" y="230" as="sourcePoint" />
            <mxPoint x="2240" y="180" as="targetPoint" />
          </mxGeometry>
        </mxCell>
        <mxCell id="y2u8pbOZwzKgA-yWUY7D-26" value="csillag" style="ellipse;whiteSpace=wrap;html=1;" parent="1" vertex="1">
          <mxGeometry x="1635" y="270" width="70" height="40" as="geometry" />
        </mxCell>
        <mxCell id="y2u8pbOZwzKgA-yWUY7D-27" value="cim" style="ellipse;whiteSpace=wrap;html=1;" parent="1" vertex="1">
          <mxGeometry x="1760" y="345" width="80" height="40" as="geometry" />
        </mxCell>
        <mxCell id="y2u8pbOZwzKgA-yWUY7D-28" value="nev" style="ellipse;whiteSpace=wrap;html=1;" parent="1" vertex="1">
          <mxGeometry x="1885" y="260" width="80" height="40" as="geometry" />
        </mxCell>
        <mxCell id="y2u8pbOZwzKgA-yWUY7D-29" value="" style="rounded=0;whiteSpace=wrap;html=1;direction=south;" parent="1" vertex="1">
          <mxGeometry x="1645" y="345" width="50" height="70" as="geometry" />
        </mxCell>
        <mxCell id="y2u8pbOZwzKgA-yWUY7D-32" value="" style="rounded=0;whiteSpace=wrap;html=1;direction=south;" parent="1" vertex="1">
          <mxGeometry x="1900" y="345" width="50" height="70" as="geometry" />
        </mxCell>
        <mxCell id="y2u8pbOZwzKgA-yWUY7D-33" value="varos" style="ellipse;whiteSpace=wrap;html=1;" parent="1" vertex="1">
          <mxGeometry x="1645" y="460" width="80" height="40" as="geometry" />
        </mxCell>
        <mxCell id="y2u8pbOZwzKgA-yWUY7D-34" value="utca" style="ellipse;whiteSpace=wrap;html=1;" parent="1" vertex="1">
          <mxGeometry x="1754" y="460" width="80" height="40" as="geometry" />
        </mxCell>
        <mxCell id="y2u8pbOZwzKgA-yWUY7D-36" value="hazszam" style="ellipse;whiteSpace=wrap;html=1;" parent="1" vertex="1">
          <mxGeometry x="1875" y="460" width="80" height="40" as="geometry" />
        </mxCell>
        <mxCell id="y2u8pbOZwzKgA-yWUY7D-37" value="" style="rounded=0;whiteSpace=wrap;html=1;direction=south;" parent="1" vertex="1">
          <mxGeometry x="1660" y="540" width="50" height="70" as="geometry" />
        </mxCell>
        <mxCell id="y2u8pbOZwzKgA-yWUY7D-38" value="" style="rounded=0;whiteSpace=wrap;html=1;direction=south;" parent="1" vertex="1">
          <mxGeometry x="1769" y="540" width="50" height="70" as="geometry" />
        </mxCell>
        <mxCell id="y2u8pbOZwzKgA-yWUY7D-39" value="" style="rounded=0;whiteSpace=wrap;html=1;direction=south;" parent="1" vertex="1">
          <mxGeometry x="1890" y="540" width="50" height="70" as="geometry" />
        </mxCell>
        <mxCell id="y2u8pbOZwzKgA-yWUY7D-40" value="ekod" style="rhombus;whiteSpace=wrap;html=1;" parent="1" vertex="1">
          <mxGeometry x="1590" y="150" width="80" height="80" as="geometry" />
        </mxCell>
        <mxCell id="y2u8pbOZwzKgA-yWUY7D-41" value="" style="endArrow=none;html=1;rounded=0;exitX=0.5;exitY=0;exitDx=0;exitDy=0;entryX=0.5;entryY=1;entryDx=0;entryDy=0;" parent="1" source="y2u8pbOZwzKgA-yWUY7D-26" target="y2u8pbOZwzKgA-yWUY7D-2" edge="1">
          <mxGeometry width="50" height="50" relative="1" as="geometry">
            <mxPoint x="1870" y="340" as="sourcePoint" />
            <mxPoint x="1920" y="290" as="targetPoint" />
          </mxGeometry>
        </mxCell>
        <mxCell id="y2u8pbOZwzKgA-yWUY7D-42" value="" style="endArrow=none;html=1;rounded=0;entryX=0.5;entryY=1;entryDx=0;entryDy=0;exitX=0.5;exitY=0;exitDx=0;exitDy=0;" parent="1" source="y2u8pbOZwzKgA-yWUY7D-28" target="y2u8pbOZwzKgA-yWUY7D-2" edge="1">
          <mxGeometry width="50" height="50" relative="1" as="geometry">
            <mxPoint x="1870" y="340" as="sourcePoint" />
            <mxPoint x="1920" y="290" as="targetPoint" />
          </mxGeometry>
        </mxCell>
        <mxCell id="y2u8pbOZwzKgA-yWUY7D-43" value="" style="endArrow=none;html=1;rounded=0;exitX=0.5;exitY=0;exitDx=0;exitDy=0;entryX=0.5;entryY=1;entryDx=0;entryDy=0;" parent="1" source="y2u8pbOZwzKgA-yWUY7D-27" target="y2u8pbOZwzKgA-yWUY7D-2" edge="1">
          <mxGeometry width="50" height="50" relative="1" as="geometry">
            <mxPoint x="1870" y="340" as="sourcePoint" />
            <mxPoint x="1800" y="240" as="targetPoint" />
          </mxGeometry>
        </mxCell>
        <mxCell id="y2u8pbOZwzKgA-yWUY7D-44" value="" style="endArrow=none;html=1;rounded=0;exitX=0;exitY=0.5;exitDx=0;exitDy=0;entryX=0.5;entryY=1;entryDx=0;entryDy=0;" parent="1" source="y2u8pbOZwzKgA-yWUY7D-29" target="y2u8pbOZwzKgA-yWUY7D-26" edge="1">
          <mxGeometry width="50" height="50" relative="1" as="geometry">
            <mxPoint x="1870" y="340" as="sourcePoint" />
            <mxPoint x="1920" y="290" as="targetPoint" />
          </mxGeometry>
        </mxCell>
        <mxCell id="y2u8pbOZwzKgA-yWUY7D-45" value="" style="endArrow=none;html=1;rounded=0;exitX=0;exitY=0.5;exitDx=0;exitDy=0;entryX=0.5;entryY=1;entryDx=0;entryDy=0;" parent="1" source="y2u8pbOZwzKgA-yWUY7D-32" target="y2u8pbOZwzKgA-yWUY7D-28" edge="1">
          <mxGeometry width="50" height="50" relative="1" as="geometry">
            <mxPoint x="1870" y="340" as="sourcePoint" />
            <mxPoint x="1920" y="290" as="targetPoint" />
          </mxGeometry>
        </mxCell>
        <mxCell id="y2u8pbOZwzKgA-yWUY7D-46" value="" style="endArrow=none;html=1;rounded=0;exitX=0.5;exitY=0;exitDx=0;exitDy=0;entryX=0.5;entryY=1;entryDx=0;entryDy=0;" parent="1" source="y2u8pbOZwzKgA-yWUY7D-33" target="y2u8pbOZwzKgA-yWUY7D-27" edge="1">
          <mxGeometry width="50" height="50" relative="1" as="geometry">
            <mxPoint x="1740" y="450" as="sourcePoint" />
            <mxPoint x="1794" y="400" as="targetPoint" />
          </mxGeometry>
        </mxCell>
        <mxCell id="y2u8pbOZwzKgA-yWUY7D-47" value="" style="endArrow=none;html=1;rounded=0;exitX=0.5;exitY=0;exitDx=0;exitDy=0;entryX=0.5;entryY=1;entryDx=0;entryDy=0;" parent="1" source="y2u8pbOZwzKgA-yWUY7D-34" target="y2u8pbOZwzKgA-yWUY7D-27" edge="1">
          <mxGeometry width="50" height="50" relative="1" as="geometry">
            <mxPoint x="1870" y="450" as="sourcePoint" />
            <mxPoint x="1810" y="410" as="targetPoint" />
          </mxGeometry>
        </mxCell>
        <mxCell id="y2u8pbOZwzKgA-yWUY7D-48" value="" style="endArrow=none;html=1;rounded=0;exitX=0.5;exitY=0;exitDx=0;exitDy=0;entryX=0.599;entryY=0.994;entryDx=0;entryDy=0;entryPerimeter=0;" parent="1" source="y2u8pbOZwzKgA-yWUY7D-36" target="y2u8pbOZwzKgA-yWUY7D-27" edge="1">
          <mxGeometry width="50" height="50" relative="1" as="geometry">
            <mxPoint x="1870" y="450" as="sourcePoint" />
            <mxPoint x="1920" y="400" as="targetPoint" />
          </mxGeometry>
        </mxCell>
        <mxCell id="y2u8pbOZwzKgA-yWUY7D-49" value="" style="endArrow=none;html=1;rounded=0;exitX=0;exitY=0.5;exitDx=0;exitDy=0;entryX=0.5;entryY=1;entryDx=0;entryDy=0;" parent="1" source="y2u8pbOZwzKgA-yWUY7D-37" target="y2u8pbOZwzKgA-yWUY7D-33" edge="1">
          <mxGeometry width="50" height="50" relative="1" as="geometry">
            <mxPoint x="1870" y="450" as="sourcePoint" />
            <mxPoint x="1920" y="400" as="targetPoint" />
          </mxGeometry>
        </mxCell>
        <mxCell id="y2u8pbOZwzKgA-yWUY7D-50" value="" style="endArrow=none;html=1;rounded=0;exitX=0;exitY=0.5;exitDx=0;exitDy=0;entryX=0.5;entryY=1;entryDx=0;entryDy=0;" parent="1" source="y2u8pbOZwzKgA-yWUY7D-38" target="y2u8pbOZwzKgA-yWUY7D-34" edge="1">
          <mxGeometry width="50" height="50" relative="1" as="geometry">
            <mxPoint x="1870" y="450" as="sourcePoint" />
            <mxPoint x="1920" y="400" as="targetPoint" />
          </mxGeometry>
        </mxCell>
        <mxCell id="y2u8pbOZwzKgA-yWUY7D-51" value="" style="endArrow=none;html=1;rounded=0;exitX=0;exitY=0.5;exitDx=0;exitDy=0;entryX=0.5;entryY=1;entryDx=0;entryDy=0;" parent="1" source="y2u8pbOZwzKgA-yWUY7D-39" target="y2u8pbOZwzKgA-yWUY7D-36" edge="1">
          <mxGeometry width="50" height="50" relative="1" as="geometry">
            <mxPoint x="1870" y="450" as="sourcePoint" />
            <mxPoint x="1915" y="520" as="targetPoint" />
          </mxGeometry>
        </mxCell>
        <mxCell id="y2u8pbOZwzKgA-yWUY7D-54" value="" style="endArrow=none;html=1;rounded=0;exitX=1;exitY=0.5;exitDx=0;exitDy=0;entryX=0;entryY=0.5;entryDx=0;entryDy=0;" parent="1" source="y2u8pbOZwzKgA-yWUY7D-40" target="y2u8pbOZwzKgA-yWUY7D-2" edge="1">
          <mxGeometry width="50" height="50" relative="1" as="geometry">
            <mxPoint x="1870" y="340" as="sourcePoint" />
            <mxPoint x="1920" y="290" as="targetPoint" />
          </mxGeometry>
        </mxCell>
        <mxCell id="V31fUuFXPpHs8atmx8qF-1" value="" style="ellipse;whiteSpace=wrap;html=1;" parent="1" vertex="1">
          <mxGeometry x="2270" y="250" width="80" height="60" as="geometry" />
        </mxCell>
        <mxCell id="V31fUuFXPpHs8atmx8qF-2" value="vegzettseg" style="ellipse;whiteSpace=wrap;html=1;" parent="1" vertex="1">
          <mxGeometry x="2280" y="260" width="60" height="40" as="geometry" />
        </mxCell>
        <mxCell id="V31fUuFXPpHs8atmx8qF-5" value="nev" style="ellipse;whiteSpace=wrap;html=1;" parent="1" vertex="1">
          <mxGeometry x="2040" y="260" width="80" height="40" as="geometry" />
        </mxCell>
        <mxCell id="V31fUuFXPpHs8atmx8qF-6" value="eletkor" style="ellipse;whiteSpace=wrap;html=1;" parent="1" vertex="1">
          <mxGeometry x="2160" y="260" width="80" height="40" as="geometry" />
        </mxCell>
        <mxCell id="V31fUuFXPpHs8atmx8qF-7" value="fkod" style="rhombus;whiteSpace=wrap;html=1;" parent="1" vertex="1">
          <mxGeometry x="2000" y="160" width="80" height="80" as="geometry" />
        </mxCell>
        <mxCell id="V31fUuFXPpHs8atmx8qF-8" value="" style="rounded=0;whiteSpace=wrap;html=1;direction=south;" parent="1" vertex="1">
          <mxGeometry x="2055" y="340" width="50" height="70" as="geometry" />
        </mxCell>
        <mxCell id="V31fUuFXPpHs8atmx8qF-9" value="" style="rounded=0;whiteSpace=wrap;html=1;direction=south;" parent="1" vertex="1">
          <mxGeometry x="2175" y="340" width="50" height="70" as="geometry" />
        </mxCell>
        <mxCell id="V31fUuFXPpHs8atmx8qF-10" value="" style="rounded=0;whiteSpace=wrap;html=1;direction=south;" parent="1" vertex="1">
          <mxGeometry x="2285" y="340" width="50" height="70" as="geometry" />
        </mxCell>
        <mxCell id="V31fUuFXPpHs8atmx8qF-11" value="" style="endArrow=none;html=1;rounded=0;exitX=1;exitY=0.5;exitDx=0;exitDy=0;entryX=0;entryY=0.5;entryDx=0;entryDy=0;" parent="1" source="V31fUuFXPpHs8atmx8qF-7" target="y2u8pbOZwzKgA-yWUY7D-4" edge="1">
          <mxGeometry width="50" height="50" relative="1" as="geometry">
            <mxPoint x="1840" y="350" as="sourcePoint" />
            <mxPoint x="1890" y="300" as="targetPoint" />
          </mxGeometry>
        </mxCell>
        <mxCell id="V31fUuFXPpHs8atmx8qF-12" value="" style="endArrow=none;html=1;rounded=0;exitX=0.5;exitY=0;exitDx=0;exitDy=0;entryX=0.5;entryY=1;entryDx=0;entryDy=0;" parent="1" source="V31fUuFXPpHs8atmx8qF-5" target="y2u8pbOZwzKgA-yWUY7D-4" edge="1">
          <mxGeometry width="50" height="50" relative="1" as="geometry">
            <mxPoint x="1840" y="350" as="sourcePoint" />
            <mxPoint x="1890" y="300" as="targetPoint" />
          </mxGeometry>
        </mxCell>
        <mxCell id="V31fUuFXPpHs8atmx8qF-13" value="" style="endArrow=none;html=1;rounded=0;exitX=0.5;exitY=0;exitDx=0;exitDy=0;entryX=0.5;entryY=1;entryDx=0;entryDy=0;" parent="1" source="V31fUuFXPpHs8atmx8qF-6" target="y2u8pbOZwzKgA-yWUY7D-4" edge="1">
          <mxGeometry width="50" height="50" relative="1" as="geometry">
            <mxPoint x="1840" y="350" as="sourcePoint" />
            <mxPoint x="1980" y="320" as="targetPoint" />
          </mxGeometry>
        </mxCell>
        <mxCell id="V31fUuFXPpHs8atmx8qF-14" value="" style="endArrow=none;html=1;rounded=0;exitX=0.5;exitY=0;exitDx=0;exitDy=0;entryX=0.5;entryY=1;entryDx=0;entryDy=0;" parent="1" source="V31fUuFXPpHs8atmx8qF-1" target="y2u8pbOZwzKgA-yWUY7D-4" edge="1">
          <mxGeometry width="50" height="50" relative="1" as="geometry">
            <mxPoint x="1840" y="350" as="sourcePoint" />
            <mxPoint x="1890" y="300" as="targetPoint" />
          </mxGeometry>
        </mxCell>
        <mxCell id="V31fUuFXPpHs8atmx8qF-15" value="" style="endArrow=none;html=1;rounded=0;exitX=0;exitY=0.5;exitDx=0;exitDy=0;entryX=0.5;entryY=1;entryDx=0;entryDy=0;" parent="1" source="V31fUuFXPpHs8atmx8qF-8" target="V31fUuFXPpHs8atmx8qF-5" edge="1">
          <mxGeometry width="50" height="50" relative="1" as="geometry">
            <mxPoint x="1840" y="350" as="sourcePoint" />
            <mxPoint x="1890" y="300" as="targetPoint" />
          </mxGeometry>
        </mxCell>
        <mxCell id="V31fUuFXPpHs8atmx8qF-16" value="" style="endArrow=none;html=1;rounded=0;exitX=0;exitY=0.5;exitDx=0;exitDy=0;entryX=0.5;entryY=1;entryDx=0;entryDy=0;" parent="1" source="V31fUuFXPpHs8atmx8qF-9" target="V31fUuFXPpHs8atmx8qF-6" edge="1">
          <mxGeometry width="50" height="50" relative="1" as="geometry">
            <mxPoint x="1840" y="350" as="sourcePoint" />
            <mxPoint x="1890" y="300" as="targetPoint" />
          </mxGeometry>
        </mxCell>
        <mxCell id="bbiCSKsUrUmHNVUulFf7-1" value="" style="endArrow=none;html=1;rounded=0;exitX=0;exitY=0.5;exitDx=0;exitDy=0;entryX=0.5;entryY=1;entryDx=0;entryDy=0;" edge="1" parent="1" source="V31fUuFXPpHs8atmx8qF-10" target="V31fUuFXPpHs8atmx8qF-1">
          <mxGeometry width="50" height="50" relative="1" as="geometry">
            <mxPoint x="2330" y="320" as="sourcePoint" />
            <mxPoint x="2440" y="260" as="targetPoint" />
          </mxGeometry>
        </mxCell>
        <mxCell id="bbiCSKsUrUmHNVUulFf7-2" value="" style="ellipse;whiteSpace=wrap;html=1;" vertex="1" parent="1">
          <mxGeometry x="2660" y="260" width="80" height="60" as="geometry" />
        </mxCell>
        <mxCell id="bbiCSKsUrUmHNVUulFf7-3" value="vegzettseg" style="ellipse;whiteSpace=wrap;html=1;" vertex="1" parent="1">
          <mxGeometry x="2670" y="270" width="60" height="40" as="geometry" />
        </mxCell>
        <mxCell id="bbiCSKsUrUmHNVUulFf7-4" value="nev" style="ellipse;whiteSpace=wrap;html=1;" vertex="1" parent="1">
          <mxGeometry x="2430" y="270" width="80" height="40" as="geometry" />
        </mxCell>
        <mxCell id="bbiCSKsUrUmHNVUulFf7-5" value="reszleg" style="ellipse;whiteSpace=wrap;html=1;" vertex="1" parent="1">
          <mxGeometry x="2550" y="270" width="80" height="40" as="geometry" />
        </mxCell>
        <mxCell id="bbiCSKsUrUmHNVUulFf7-6" value="" style="rounded=0;whiteSpace=wrap;html=1;direction=south;" vertex="1" parent="1">
          <mxGeometry x="2445" y="350" width="50" height="70" as="geometry" />
        </mxCell>
        <mxCell id="bbiCSKsUrUmHNVUulFf7-7" value="" style="rounded=0;whiteSpace=wrap;html=1;direction=south;" vertex="1" parent="1">
          <mxGeometry x="2565" y="350" width="50" height="70" as="geometry" />
        </mxCell>
        <mxCell id="bbiCSKsUrUmHNVUulFf7-8" value="" style="rounded=0;whiteSpace=wrap;html=1;direction=south;" vertex="1" parent="1">
          <mxGeometry x="2675" y="350" width="50" height="70" as="geometry" />
        </mxCell>
        <mxCell id="bbiCSKsUrUmHNVUulFf7-9" value="" style="endArrow=none;html=1;rounded=0;exitX=0.5;exitY=0;exitDx=0;exitDy=0;entryX=0.5;entryY=1;entryDx=0;entryDy=0;" edge="1" parent="1" source="bbiCSKsUrUmHNVUulFf7-4" target="y2u8pbOZwzKgA-yWUY7D-6">
          <mxGeometry width="50" height="50" relative="1" as="geometry">
            <mxPoint x="2230" y="360" as="sourcePoint" />
            <mxPoint x="2580" y="240" as="targetPoint" />
          </mxGeometry>
        </mxCell>
        <mxCell id="bbiCSKsUrUmHNVUulFf7-10" value="" style="endArrow=none;html=1;rounded=0;exitX=0.5;exitY=0;exitDx=0;exitDy=0;entryX=0.5;entryY=1;entryDx=0;entryDy=0;" edge="1" parent="1" source="bbiCSKsUrUmHNVUulFf7-5" target="y2u8pbOZwzKgA-yWUY7D-6">
          <mxGeometry width="50" height="50" relative="1" as="geometry">
            <mxPoint x="2230" y="360" as="sourcePoint" />
            <mxPoint x="2580" y="250" as="targetPoint" />
          </mxGeometry>
        </mxCell>
        <mxCell id="bbiCSKsUrUmHNVUulFf7-11" value="" style="endArrow=none;html=1;rounded=0;exitX=0.5;exitY=0;exitDx=0;exitDy=0;entryX=0.5;entryY=1;entryDx=0;entryDy=0;" edge="1" parent="1" source="bbiCSKsUrUmHNVUulFf7-2" target="y2u8pbOZwzKgA-yWUY7D-6">
          <mxGeometry width="50" height="50" relative="1" as="geometry">
            <mxPoint x="2230" y="360" as="sourcePoint" />
            <mxPoint x="2580" y="250" as="targetPoint" />
          </mxGeometry>
        </mxCell>
        <mxCell id="bbiCSKsUrUmHNVUulFf7-12" value="" style="endArrow=none;html=1;rounded=0;exitX=0;exitY=0.5;exitDx=0;exitDy=0;entryX=0.5;entryY=1;entryDx=0;entryDy=0;" edge="1" parent="1" source="bbiCSKsUrUmHNVUulFf7-6" target="bbiCSKsUrUmHNVUulFf7-4">
          <mxGeometry width="50" height="50" relative="1" as="geometry">
            <mxPoint x="2230" y="360" as="sourcePoint" />
            <mxPoint x="2280" y="310" as="targetPoint" />
          </mxGeometry>
        </mxCell>
        <mxCell id="bbiCSKsUrUmHNVUulFf7-13" value="" style="endArrow=none;html=1;rounded=0;exitX=0;exitY=0.5;exitDx=0;exitDy=0;entryX=0.5;entryY=1;entryDx=0;entryDy=0;" edge="1" parent="1" source="bbiCSKsUrUmHNVUulFf7-7" target="bbiCSKsUrUmHNVUulFf7-5">
          <mxGeometry width="50" height="50" relative="1" as="geometry">
            <mxPoint x="2230" y="360" as="sourcePoint" />
            <mxPoint x="2280" y="310" as="targetPoint" />
          </mxGeometry>
        </mxCell>
        <mxCell id="bbiCSKsUrUmHNVUulFf7-14" value="" style="endArrow=none;html=1;rounded=0;exitX=0;exitY=0.5;exitDx=0;exitDy=0;entryX=0.5;entryY=1;entryDx=0;entryDy=0;" edge="1" parent="1" source="bbiCSKsUrUmHNVUulFf7-8" target="bbiCSKsUrUmHNVUulFf7-2">
          <mxGeometry width="50" height="50" relative="1" as="geometry">
            <mxPoint x="2720" y="330" as="sourcePoint" />
            <mxPoint x="2830" y="270" as="targetPoint" />
          </mxGeometry>
        </mxCell>
        <mxCell id="bbiCSKsUrUmHNVUulFf7-15" value="fkod" style="rhombus;whiteSpace=wrap;html=1;" vertex="1" parent="1">
          <mxGeometry x="2390" y="160" width="80" height="80" as="geometry" />
        </mxCell>
        <mxCell id="bbiCSKsUrUmHNVUulFf7-17" value="" style="endArrow=none;html=1;rounded=0;exitX=1;exitY=0.5;exitDx=0;exitDy=0;entryX=0;entryY=0.5;entryDx=0;entryDy=0;" edge="1" parent="1" source="bbiCSKsUrUmHNVUulFf7-15" target="y2u8pbOZwzKgA-yWUY7D-6">
          <mxGeometry width="50" height="50" relative="1" as="geometry">
            <mxPoint x="2470" y="200" as="sourcePoint" />
            <mxPoint x="2550" y="210" as="targetPoint" />
          </mxGeometry>
        </mxCell>
        <mxCell id="bbiCSKsUrUmHNVUulFf7-18" value="" style="ellipse;whiteSpace=wrap;html=1;" vertex="1" parent="1">
          <mxGeometry x="3080" y="260" width="80" height="60" as="geometry" />
        </mxCell>
        <mxCell id="bbiCSKsUrUmHNVUulFf7-19" value="muszak" style="ellipse;whiteSpace=wrap;html=1;" vertex="1" parent="1">
          <mxGeometry x="3090" y="270" width="60" height="40" as="geometry" />
        </mxCell>
        <mxCell id="bbiCSKsUrUmHNVUulFf7-20" value="nev" style="ellipse;whiteSpace=wrap;html=1;" vertex="1" parent="1">
          <mxGeometry x="2850" y="270" width="80" height="40" as="geometry" />
        </mxCell>
        <mxCell id="bbiCSKsUrUmHNVUulFf7-21" value="gyakorlat" style="ellipse;whiteSpace=wrap;html=1;" vertex="1" parent="1">
          <mxGeometry x="2970" y="270" width="80" height="40" as="geometry" />
        </mxCell>
        <mxCell id="bbiCSKsUrUmHNVUulFf7-22" value="" style="rounded=0;whiteSpace=wrap;html=1;direction=south;" vertex="1" parent="1">
          <mxGeometry x="2865" y="350" width="50" height="70" as="geometry" />
        </mxCell>
        <mxCell id="bbiCSKsUrUmHNVUulFf7-24" value="" style="rounded=0;whiteSpace=wrap;html=1;direction=south;" vertex="1" parent="1">
          <mxGeometry x="3095" y="350" width="50" height="70" as="geometry" />
        </mxCell>
        <mxCell id="bbiCSKsUrUmHNVUulFf7-25" value="" style="endArrow=none;html=1;rounded=0;exitX=0;exitY=0.5;exitDx=0;exitDy=0;entryX=0.5;entryY=1;entryDx=0;entryDy=0;" edge="1" parent="1" source="bbiCSKsUrUmHNVUulFf7-22" target="bbiCSKsUrUmHNVUulFf7-20">
          <mxGeometry width="50" height="50" relative="1" as="geometry">
            <mxPoint x="2650" y="360" as="sourcePoint" />
            <mxPoint x="2700" y="310" as="targetPoint" />
          </mxGeometry>
        </mxCell>
        <mxCell id="bbiCSKsUrUmHNVUulFf7-27" value="" style="endArrow=none;html=1;rounded=0;exitX=0;exitY=0.5;exitDx=0;exitDy=0;entryX=0.5;entryY=1;entryDx=0;entryDy=0;" edge="1" parent="1" source="bbiCSKsUrUmHNVUulFf7-24" target="bbiCSKsUrUmHNVUulFf7-18">
          <mxGeometry width="50" height="50" relative="1" as="geometry">
            <mxPoint x="3140" y="330" as="sourcePoint" />
            <mxPoint x="3250" y="270" as="targetPoint" />
          </mxGeometry>
        </mxCell>
        <mxCell id="bbiCSKsUrUmHNVUulFf7-28" value="gykod" style="rhombus;whiteSpace=wrap;html=1;" vertex="1" parent="1">
          <mxGeometry x="2750" y="160" width="80" height="80" as="geometry" />
        </mxCell>
        <mxCell id="bbiCSKsUrUmHNVUulFf7-29" value="" style="endArrow=none;html=1;rounded=0;entryX=1;entryY=0.5;entryDx=0;entryDy=0;exitX=0;exitY=0.5;exitDx=0;exitDy=0;" edge="1" parent="1" source="y2u8pbOZwzKgA-yWUY7D-9" target="bbiCSKsUrUmHNVUulFf7-28">
          <mxGeometry width="50" height="50" relative="1" as="geometry">
            <mxPoint x="2550" y="240" as="sourcePoint" />
            <mxPoint x="2600" y="190" as="targetPoint" />
          </mxGeometry>
        </mxCell>
        <mxCell id="bbiCSKsUrUmHNVUulFf7-31" value="idotartama" style="ellipse;whiteSpace=wrap;html=1;" vertex="1" parent="1">
          <mxGeometry x="3025" y="430" width="80" height="40" as="geometry" />
        </mxCell>
        <mxCell id="bbiCSKsUrUmHNVUulFf7-32" value="kezdete" style="ellipse;whiteSpace=wrap;html=1;" vertex="1" parent="1">
          <mxGeometry x="2923" y="430" width="80" height="40" as="geometry" />
        </mxCell>
        <mxCell id="bbiCSKsUrUmHNVUulFf7-33" value="" style="rounded=0;whiteSpace=wrap;html=1;direction=south;" vertex="1" parent="1">
          <mxGeometry x="3040" y="500" width="50" height="70" as="geometry" />
        </mxCell>
        <mxCell id="bbiCSKsUrUmHNVUulFf7-34" value="" style="rounded=0;whiteSpace=wrap;html=1;direction=south;" vertex="1" parent="1">
          <mxGeometry x="2938" y="500" width="50" height="70" as="geometry" />
        </mxCell>
        <mxCell id="bbiCSKsUrUmHNVUulFf7-35" value="" style="endArrow=none;html=1;rounded=0;exitX=0.5;exitY=0;exitDx=0;exitDy=0;entryX=0.5;entryY=1;entryDx=0;entryDy=0;" edge="1" parent="1" source="bbiCSKsUrUmHNVUulFf7-32" target="bbiCSKsUrUmHNVUulFf7-21">
          <mxGeometry width="50" height="50" relative="1" as="geometry">
            <mxPoint x="2910" y="330" as="sourcePoint" />
            <mxPoint x="2960" y="280" as="targetPoint" />
          </mxGeometry>
        </mxCell>
        <mxCell id="bbiCSKsUrUmHNVUulFf7-36" value="" style="endArrow=none;html=1;rounded=0;exitX=0.5;exitY=0;exitDx=0;exitDy=0;entryX=0.5;entryY=1;entryDx=0;entryDy=0;" edge="1" parent="1" source="bbiCSKsUrUmHNVUulFf7-31" target="bbiCSKsUrUmHNVUulFf7-21">
          <mxGeometry width="50" height="50" relative="1" as="geometry">
            <mxPoint x="2910" y="330" as="sourcePoint" />
            <mxPoint x="2960" y="280" as="targetPoint" />
          </mxGeometry>
        </mxCell>
        <mxCell id="bbiCSKsUrUmHNVUulFf7-37" value="" style="endArrow=none;html=1;rounded=0;exitX=0;exitY=0.5;exitDx=0;exitDy=0;entryX=0.5;entryY=1;entryDx=0;entryDy=0;" edge="1" parent="1" source="bbiCSKsUrUmHNVUulFf7-34" target="bbiCSKsUrUmHNVUulFf7-32">
          <mxGeometry width="50" height="50" relative="1" as="geometry">
            <mxPoint x="2910" y="330" as="sourcePoint" />
            <mxPoint x="2970" y="480" as="targetPoint" />
          </mxGeometry>
        </mxCell>
        <mxCell id="bbiCSKsUrUmHNVUulFf7-38" value="" style="endArrow=none;html=1;rounded=0;exitX=0;exitY=0.5;exitDx=0;exitDy=0;entryX=0.5;entryY=1;entryDx=0;entryDy=0;" edge="1" parent="1" source="bbiCSKsUrUmHNVUulFf7-33" target="bbiCSKsUrUmHNVUulFf7-31">
          <mxGeometry width="50" height="50" relative="1" as="geometry">
            <mxPoint x="2910" y="330" as="sourcePoint" />
            <mxPoint x="2960" y="280" as="targetPoint" />
          </mxGeometry>
        </mxCell>
        <mxCell id="bbiCSKsUrUmHNVUulFf7-39" value="" style="endArrow=none;html=1;rounded=0;exitX=0.5;exitY=0;exitDx=0;exitDy=0;entryX=0.5;entryY=1;entryDx=0;entryDy=0;" edge="1" parent="1" source="bbiCSKsUrUmHNVUulFf7-20" target="y2u8pbOZwzKgA-yWUY7D-9">
          <mxGeometry width="50" height="50" relative="1" as="geometry">
            <mxPoint x="2910" y="330" as="sourcePoint" />
            <mxPoint x="2960" y="280" as="targetPoint" />
          </mxGeometry>
        </mxCell>
        <mxCell id="bbiCSKsUrUmHNVUulFf7-40" value="" style="endArrow=none;html=1;rounded=0;exitX=0.5;exitY=0;exitDx=0;exitDy=0;" edge="1" parent="1" source="bbiCSKsUrUmHNVUulFf7-21">
          <mxGeometry width="50" height="50" relative="1" as="geometry">
            <mxPoint x="2910" y="330" as="sourcePoint" />
            <mxPoint x="2970" y="240" as="targetPoint" />
          </mxGeometry>
        </mxCell>
        <mxCell id="bbiCSKsUrUmHNVUulFf7-41" value="" style="endArrow=none;html=1;rounded=0;exitX=0.5;exitY=0;exitDx=0;exitDy=0;entryX=0.5;entryY=1;entryDx=0;entryDy=0;" edge="1" parent="1" source="bbiCSKsUrUmHNVUulFf7-18" target="y2u8pbOZwzKgA-yWUY7D-9">
          <mxGeometry width="50" height="50" relative="1" as="geometry">
            <mxPoint x="2910" y="330" as="sourcePoint" />
            <mxPoint x="2960" y="280" as="targetPoint" />
          </mxGeometry>
        </mxCell>
        <mxCell id="bbiCSKsUrUmHNVUulFf7-44" value="nev" style="ellipse;whiteSpace=wrap;html=1;" vertex="1" parent="1">
          <mxGeometry x="3215" y="270" width="80" height="40" as="geometry" />
        </mxCell>
        <mxCell id="bbiCSKsUrUmHNVUulFf7-45" value="cim" style="ellipse;whiteSpace=wrap;html=1;" vertex="1" parent="1">
          <mxGeometry x="3340" y="270" width="80" height="40" as="geometry" />
        </mxCell>
        <mxCell id="bbiCSKsUrUmHNVUulFf7-46" value="" style="rounded=0;whiteSpace=wrap;html=1;direction=south;" vertex="1" parent="1">
          <mxGeometry x="3230" y="330" width="50" height="70" as="geometry" />
        </mxCell>
        <mxCell id="bbiCSKsUrUmHNVUulFf7-47" value="" style="rounded=0;whiteSpace=wrap;html=1;direction=south;" vertex="1" parent="1">
          <mxGeometry x="3515" y="330" width="50" height="70" as="geometry" />
        </mxCell>
        <mxCell id="bbiCSKsUrUmHNVUulFf7-48" value="" style="endArrow=none;html=1;rounded=0;exitX=0;exitY=0.5;exitDx=0;exitDy=0;entryX=0.5;entryY=1;entryDx=0;entryDy=0;" edge="1" parent="1" source="bbiCSKsUrUmHNVUulFf7-46" target="bbiCSKsUrUmHNVUulFf7-44">
          <mxGeometry width="50" height="50" relative="1" as="geometry">
            <mxPoint x="3040" y="360" as="sourcePoint" />
            <mxPoint x="3090" y="310" as="targetPoint" />
          </mxGeometry>
        </mxCell>
        <mxCell id="bbiCSKsUrUmHNVUulFf7-49" value="" style="endArrow=none;html=1;rounded=0;exitX=0;exitY=0.5;exitDx=0;exitDy=0;entryX=0.5;entryY=1;entryDx=0;entryDy=0;" edge="1" parent="1" source="bbiCSKsUrUmHNVUulFf7-47" target="bbiCSKsUrUmHNVUulFf7-63">
          <mxGeometry width="50" height="50" relative="1" as="geometry">
            <mxPoint x="3530" y="330" as="sourcePoint" />
            <mxPoint x="3480" y="320" as="targetPoint" />
          </mxGeometry>
        </mxCell>
        <mxCell id="bbiCSKsUrUmHNVUulFf7-50" value="utca" style="ellipse;whiteSpace=wrap;html=1;" vertex="1" parent="1">
          <mxGeometry x="3350" y="420" width="80" height="40" as="geometry" />
        </mxCell>
        <mxCell id="bbiCSKsUrUmHNVUulFf7-51" value="varos" style="ellipse;whiteSpace=wrap;html=1;" vertex="1" parent="1">
          <mxGeometry x="3250" y="420" width="80" height="40" as="geometry" />
        </mxCell>
        <mxCell id="bbiCSKsUrUmHNVUulFf7-52" value="" style="rounded=0;whiteSpace=wrap;html=1;direction=south;" vertex="1" parent="1">
          <mxGeometry x="3365" y="490" width="50" height="70" as="geometry" />
        </mxCell>
        <mxCell id="bbiCSKsUrUmHNVUulFf7-53" value="" style="rounded=0;whiteSpace=wrap;html=1;direction=south;" vertex="1" parent="1">
          <mxGeometry x="3265" y="490" width="50" height="70" as="geometry" />
        </mxCell>
        <mxCell id="bbiCSKsUrUmHNVUulFf7-54" value="" style="endArrow=none;html=1;rounded=0;exitX=0.5;exitY=0;exitDx=0;exitDy=0;entryX=0.5;entryY=1;entryDx=0;entryDy=0;" edge="1" parent="1" source="bbiCSKsUrUmHNVUulFf7-51" target="bbiCSKsUrUmHNVUulFf7-45">
          <mxGeometry width="50" height="50" relative="1" as="geometry">
            <mxPoint x="3300" y="330" as="sourcePoint" />
            <mxPoint x="3350" y="280" as="targetPoint" />
          </mxGeometry>
        </mxCell>
        <mxCell id="bbiCSKsUrUmHNVUulFf7-55" value="" style="endArrow=none;html=1;rounded=0;exitX=0.5;exitY=0;exitDx=0;exitDy=0;entryX=0.5;entryY=1;entryDx=0;entryDy=0;" edge="1" parent="1" source="bbiCSKsUrUmHNVUulFf7-50" target="bbiCSKsUrUmHNVUulFf7-45">
          <mxGeometry width="50" height="50" relative="1" as="geometry">
            <mxPoint x="3300" y="330" as="sourcePoint" />
            <mxPoint x="3350" y="280" as="targetPoint" />
          </mxGeometry>
        </mxCell>
        <mxCell id="bbiCSKsUrUmHNVUulFf7-56" value="" style="endArrow=none;html=1;rounded=0;exitX=0;exitY=0.5;exitDx=0;exitDy=0;entryX=0.5;entryY=1;entryDx=0;entryDy=0;" edge="1" parent="1" source="bbiCSKsUrUmHNVUulFf7-53" target="bbiCSKsUrUmHNVUulFf7-51">
          <mxGeometry width="50" height="50" relative="1" as="geometry">
            <mxPoint x="3300" y="330" as="sourcePoint" />
            <mxPoint x="3360" y="480" as="targetPoint" />
          </mxGeometry>
        </mxCell>
        <mxCell id="bbiCSKsUrUmHNVUulFf7-57" value="" style="endArrow=none;html=1;rounded=0;exitX=0;exitY=0.5;exitDx=0;exitDy=0;entryX=0.5;entryY=1;entryDx=0;entryDy=0;" edge="1" parent="1" source="bbiCSKsUrUmHNVUulFf7-52" target="bbiCSKsUrUmHNVUulFf7-50">
          <mxGeometry width="50" height="50" relative="1" as="geometry">
            <mxPoint x="3300" y="330" as="sourcePoint" />
            <mxPoint x="3350" y="280" as="targetPoint" />
          </mxGeometry>
        </mxCell>
        <mxCell id="bbiCSKsUrUmHNVUulFf7-58" value="" style="endArrow=none;html=1;rounded=0;exitX=0.5;exitY=0;exitDx=0;exitDy=0;entryX=0.5;entryY=1;entryDx=0;entryDy=0;" edge="1" parent="1" source="bbiCSKsUrUmHNVUulFf7-44" target="y2u8pbOZwzKgA-yWUY7D-12">
          <mxGeometry width="50" height="50" relative="1" as="geometry">
            <mxPoint x="3300" y="330" as="sourcePoint" />
            <mxPoint x="3360" y="240" as="targetPoint" />
          </mxGeometry>
        </mxCell>
        <mxCell id="bbiCSKsUrUmHNVUulFf7-59" value="" style="endArrow=none;html=1;rounded=0;exitX=0.5;exitY=0;exitDx=0;exitDy=0;entryX=0.5;entryY=1;entryDx=0;entryDy=0;" edge="1" parent="1" source="bbiCSKsUrUmHNVUulFf7-45" target="y2u8pbOZwzKgA-yWUY7D-12">
          <mxGeometry width="50" height="50" relative="1" as="geometry">
            <mxPoint x="3300" y="330" as="sourcePoint" />
            <mxPoint x="3350" y="260" as="targetPoint" />
          </mxGeometry>
        </mxCell>
        <mxCell id="bbiCSKsUrUmHNVUulFf7-60" value="" style="endArrow=none;html=1;rounded=0;exitX=0.5;exitY=0;exitDx=0;exitDy=0;entryX=0.5;entryY=1;entryDx=0;entryDy=0;" edge="1" parent="1" source="bbiCSKsUrUmHNVUulFf7-63" target="y2u8pbOZwzKgA-yWUY7D-12">
          <mxGeometry width="50" height="50" relative="1" as="geometry">
            <mxPoint x="3480" y="260" as="sourcePoint" />
            <mxPoint x="3380" y="240" as="targetPoint" />
          </mxGeometry>
        </mxCell>
        <mxCell id="bbiCSKsUrUmHNVUulFf7-61" value="vkod" style="rhombus;whiteSpace=wrap;html=1;" vertex="1" parent="1">
          <mxGeometry x="3170" y="155" width="80" height="80" as="geometry" />
        </mxCell>
        <mxCell id="bbiCSKsUrUmHNVUulFf7-62" value="" style="endArrow=none;html=1;rounded=0;exitX=1;exitY=0.5;exitDx=0;exitDy=0;entryX=0;entryY=0.5;entryDx=0;entryDy=0;" edge="1" parent="1" source="bbiCSKsUrUmHNVUulFf7-61" target="y2u8pbOZwzKgA-yWUY7D-12">
          <mxGeometry width="50" height="50" relative="1" as="geometry">
            <mxPoint x="3260" y="330" as="sourcePoint" />
            <mxPoint x="3310" y="280" as="targetPoint" />
          </mxGeometry>
        </mxCell>
        <mxCell id="bbiCSKsUrUmHNVUulFf7-63" value="eletkor" style="ellipse;whiteSpace=wrap;html=1;" vertex="1" parent="1">
          <mxGeometry x="3500" y="270" width="80" height="40" as="geometry" />
        </mxCell>
        <mxCell id="bbiCSKsUrUmHNVUulFf7-64" value="hazszam" style="ellipse;whiteSpace=wrap;html=1;" vertex="1" parent="1">
          <mxGeometry x="3455" y="420" width="80" height="40" as="geometry" />
        </mxCell>
        <mxCell id="bbiCSKsUrUmHNVUulFf7-65" value="" style="endArrow=none;html=1;rounded=0;exitX=0.5;exitY=0;exitDx=0;exitDy=0;entryX=0.5;entryY=1;entryDx=0;entryDy=0;" edge="1" parent="1" source="bbiCSKsUrUmHNVUulFf7-64" target="bbiCSKsUrUmHNVUulFf7-45">
          <mxGeometry width="50" height="50" relative="1" as="geometry">
            <mxPoint x="3260" y="330" as="sourcePoint" />
            <mxPoint x="3310" y="280" as="targetPoint" />
          </mxGeometry>
        </mxCell>
        <mxCell id="bbiCSKsUrUmHNVUulFf7-66" value="" style="rounded=0;whiteSpace=wrap;html=1;direction=south;" vertex="1" parent="1">
          <mxGeometry x="3470" y="490" width="50" height="70" as="geometry" />
        </mxCell>
        <mxCell id="bbiCSKsUrUmHNVUulFf7-67" value="" style="endArrow=none;html=1;rounded=0;exitX=0;exitY=0.5;exitDx=0;exitDy=0;entryX=0.5;entryY=1;entryDx=0;entryDy=0;" edge="1" parent="1" source="bbiCSKsUrUmHNVUulFf7-66" target="bbiCSKsUrUmHNVUulFf7-64">
          <mxGeometry width="50" height="50" relative="1" as="geometry">
            <mxPoint x="3260" y="330" as="sourcePoint" />
            <mxPoint x="3310" y="280" as="targetPoint" />
          </mxGeometry>
        </mxCell>
        <mxCell id="bbiCSKsUrUmHNVUulFf7-68" value="osszeg" style="ellipse;whiteSpace=wrap;html=1;" vertex="1" parent="1">
          <mxGeometry x="3650" y="260" width="80" height="40" as="geometry" />
        </mxCell>
        <mxCell id="bbiCSKsUrUmHNVUulFf7-69" value="etel" style="ellipse;whiteSpace=wrap;html=1;" vertex="1" parent="1">
          <mxGeometry x="3840" y="260" width="80" height="40" as="geometry" />
        </mxCell>
        <mxCell id="bbiCSKsUrUmHNVUulFf7-70" value="" style="rounded=0;whiteSpace=wrap;html=1;direction=south;" vertex="1" parent="1">
          <mxGeometry x="3665" y="330" width="50" height="70" as="geometry" />
        </mxCell>
        <mxCell id="bbiCSKsUrUmHNVUulFf7-71" value="" style="rounded=0;whiteSpace=wrap;html=1;direction=south;" vertex="1" parent="1">
          <mxGeometry x="3855" y="330" width="50" height="70" as="geometry" />
        </mxCell>
        <mxCell id="bbiCSKsUrUmHNVUulFf7-72" value="" style="endArrow=none;html=1;rounded=0;exitX=0;exitY=0.5;exitDx=0;exitDy=0;entryX=0.5;entryY=1;entryDx=0;entryDy=0;" edge="1" parent="1" source="bbiCSKsUrUmHNVUulFf7-70" target="bbiCSKsUrUmHNVUulFf7-68">
          <mxGeometry width="50" height="50" relative="1" as="geometry">
            <mxPoint x="3610" y="330" as="sourcePoint" />
            <mxPoint x="3660" y="280" as="targetPoint" />
          </mxGeometry>
        </mxCell>
        <mxCell id="bbiCSKsUrUmHNVUulFf7-74" value="" style="endArrow=none;html=1;rounded=0;exitX=0;exitY=0.5;exitDx=0;exitDy=0;entryX=0.5;entryY=1;entryDx=0;entryDy=0;" edge="1" parent="1" source="bbiCSKsUrUmHNVUulFf7-71" target="bbiCSKsUrUmHNVUulFf7-69">
          <mxGeometry width="50" height="50" relative="1" as="geometry">
            <mxPoint x="3610" y="330" as="sourcePoint" />
            <mxPoint x="3660" y="280" as="targetPoint" />
          </mxGeometry>
        </mxCell>
        <mxCell id="bbiCSKsUrUmHNVUulFf7-75" value="" style="endArrow=none;html=1;rounded=0;" edge="1" parent="1" source="bbiCSKsUrUmHNVUulFf7-68">
          <mxGeometry width="50" height="50" relative="1" as="geometry">
            <mxPoint x="3610" y="330" as="sourcePoint" />
            <mxPoint x="3660" y="280" as="targetPoint" />
          </mxGeometry>
        </mxCell>
        <mxCell id="bbiCSKsUrUmHNVUulFf7-76" value="" style="endArrow=none;html=1;rounded=0;exitX=0.5;exitY=0;exitDx=0;exitDy=0;" edge="1" parent="1" source="bbiCSKsUrUmHNVUulFf7-68">
          <mxGeometry width="50" height="50" relative="1" as="geometry">
            <mxPoint x="3610" y="330" as="sourcePoint" />
            <mxPoint x="3790" y="220" as="targetPoint" />
          </mxGeometry>
        </mxCell>
        <mxCell id="bbiCSKsUrUmHNVUulFf7-77" value="" style="endArrow=none;html=1;rounded=0;exitX=0.5;exitY=0;exitDx=0;exitDy=0;entryX=0.5;entryY=1;entryDx=0;entryDy=0;" edge="1" parent="1" source="bbiCSKsUrUmHNVUulFf7-69" target="y2u8pbOZwzKgA-yWUY7D-15">
          <mxGeometry width="50" height="50" relative="1" as="geometry">
            <mxPoint x="3820" y="280" as="sourcePoint" />
            <mxPoint x="3790" y="240" as="targetPoint" />
          </mxGeometry>
        </mxCell>
      </root>
    </mxGraphModel>
  </diagram>
</mxfile>
